<?xml version="1.0" encoding="UTF-8"?>
<!DOCTYPE svg PUBLIC "-//W3C//DTD SVG 1.1//EN" "http://www.w3.org/Graphics/SVG/1.1/DTD/svg11.dtd">
<!-- Creator: CorelDRAW 2019 (64-Bit) -->
<svg xmlns="http://www.w3.org/2000/svg" xml:space="preserve" width="8092px" height="1080px" version="1.1" style="shape-rendering:geometricPrecision; text-rendering:geometricPrecision; image-rendering:optimizeQuality; fill-rule:evenodd; clip-rule:evenodd"
viewBox="0 0 8092 1080.02"
 xmlns:xlink="http://www.w3.org/1999/xlink"
 xmlns:xodm="http://www.corel.com/coreldraw/odm/2003">
 <defs>
  <style type="text/css">
   <![CDATA[
    .fil0 {fill:#1F4396}
   ]]>
  </style>
 </defs>
 <g id="Layer_x0020_1">
  <metadata id="CorelCorpID_0Corel-Layer"/>
  <path class="fil0" d="M7837.37 360.06l116.94 0 137.69 363.72 -103.64 0 -25.85 -77.05 -139.98 0 -27.14 77.05 -95.9 0 137.88 -363.72zm56.56 81.12l-47.08 136.38 92.62 0 -45.54 -136.38zm-317.57 -81.12l96.95 0 0 363.72 -96.95 0 0 -363.72zm-72.59 4.17l-7.18 75.02c-14.83,-6.3 -29.07,-11.03 -42.72,-14.18 -13.63,-3.17 -26.87,-4.74 -39.66,-4.74 -19.61,0 -34.91,3.11 -45.91,9.34 -11,6.24 -16.51,14.81 -16.51,25.72 0,7.67 2.81,14.37 8.43,20.08 5.62,5.72 14.05,10.46 25.28,14.21l16.11 5.12c41.61,13.46 69.24,25.31 82.89,35.55 12.78,9.88 22.17,21.17 28.13,33.87 5.97,12.7 8.96,27.6 8.96,44.64 0,40.09 -13.31,70.65 -39.89,91.71 -26.61,21.06 -65.15,31.58 -115.63,31.58 -18.24,0 -36.54,-1.27 -54.87,-3.83 -18.33,-2.56 -36.53,-6.39 -54.62,-11.51l8.2 -81.05c17.05,7.67 33.62,13.53 49.72,17.52 16.11,4.03 31.33,6.03 45.65,6.03 19.08,0 34.18,-3.59 45.25,-10.76 11.09,-7.16 16.62,-16.88 16.62,-29.16 0,-15.2 -17.7,-28.92 -53.12,-41.19l-19.66 -6.91c-34.64,-12.47 -59.38,-26.93 -74.22,-43.4 -14.84,-16.46 -22.28,-37.49 -22.28,-63.09 0,-36.52 13.05,-64.58 39.16,-84.21 26.09,-19.62 63.55,-29.43 112.34,-29.43 17.91,0 35.13,1.06 51.68,3.2 16.55,2.14 32.51,5.42 47.85,9.87zm-560.78 -4.17l252.59 0 0 68.13 -155.65 0 0 73.37 146.73 0 0 69.18 -146.73 0 0 82.81 161.41 0 0 70.23 -258.35 0 0 -363.72zm-402.17 0l121.02 0 105.35 218.07c3.58,7.33 7.74,17.53 12.54,30.58 4.75,13.06 10.05,29.06 15.84,48 -3.08,-17.92 -5.34,-34.38 -6.79,-49.39 -1.44,-15.03 -2.16,-28.76 -2.16,-41.22l0 -206.04 87.51 0 0 363.72 -120.49 0 -109.44 -226.02c-5.1,-10.4 -9.81,-21.71 -14.07,-33.91 -4.26,-12.19 -8.18,-25.47 -11.76,-39.81 3.41,21.68 5.94,41.6 7.55,59.78 1.61,18.16 2.43,34.16 2.43,47.97l0 191.99 -87.53 0 0 -363.72zm-236.82 -8.9c56.46,0 100.6,16.84 132.42,50.53 31.81,33.7 47.73,80.39 47.73,140.1 0,59.86 -15.92,106.57 -47.73,140.09 -31.82,33.51 -75.96,50.27 -132.42,50.27 -56.82,0 -101.18,-16.76 -133.09,-50.27 -31.89,-33.52 -47.85,-80.23 -47.85,-140.09 0,-59.71 16.01,-106.4 48,-140.1 31.97,-33.69 76.29,-50.53 132.94,-50.53zm0 70.74c-25.1,0 -45.27,10.79 -60.55,32.37 -15.27,21.59 -22.91,50.45 -22.91,86.61 0,36.32 7.59,65.32 22.78,86.98 15.19,21.67 35.42,32.5 60.68,32.5 25.08,0 45.12,-10.8 60.13,-32.36 15.04,-21.58 22.54,-50.63 22.54,-87.12 0,-35.99 -7.55,-64.83 -22.65,-86.48 -15.1,-21.67 -35.11,-32.5 -60.02,-32.5zm-567.47 -61.84l127.4 0c33.26,0 61.1,2.1 83.53,6.27 22.44,4.19 40.72,10.62 54.87,19.32 26.44,16.89 46.4,38.28 59.88,64.12 13.47,25.86 20.21,55.85 20.21,89.98 0,37.53 -7.05,69.44 -21.12,95.71 -14.07,26.28 -35.51,47.86 -64.33,64.75 -14.33,8.2 -32.67,14.17 -55,17.92 -22.35,3.75 -52.36,5.65 -90.06,5.65l-115.38 0 0 -363.72zm97.48 70.22l0 220.64 41.94 0c34.09,0 60.43,-9.64 79.02,-28.92 18.58,-19.28 27.88,-46.68 27.88,-82.16 0,-35.15 -9.68,-62.2 -29.03,-81.14 -19.35,-18.94 -47.01,-28.42 -82.98,-28.42l-36.83 0zm-499.62 -70.22l121.01 0 105.34 218.07c3.58,7.33 7.75,17.53 12.53,30.58 4.78,13.06 10.05,29.06 15.86,48 -3.08,-17.92 -5.34,-34.38 -6.79,-49.39 -1.45,-15.03 -2.17,-28.76 -2.17,-41.22l0 -206.04 87.52 0 0 363.72 -120.51 0 -109.42 -226.02c-5.12,-10.4 -9.82,-21.71 -14.07,-33.91 -4.27,-12.19 -8.18,-25.47 -11.76,-39.81 3.4,21.68 5.91,41.6 7.53,59.78 1.63,18.16 2.44,34.16 2.44,47.97l0 191.99 -87.51 0 0 -363.72zm-167.14 0l96.95 0 0 363.72 -96.95 0 0 -363.72zm-478.73 0l277.23 0 0 72.85 -90.14 0 0 290.87 -96.95 0 0 -290.87 -90.14 0 0 -72.85zm-231.59 0l116.97 0 137.67 363.72 -103.64 0 -25.85 -77.05 -139.99 0 -27.12 77.05 -95.91 0 137.87 -363.72zm56.56 81.12l-47.08 136.38 92.62 0 -45.54 -136.38zm-505.49 -81.12l109.95 0 72.63 153.57 72.46 -153.57 104.38 0 -132.06 227.54 0 136.18 -96.95 0 0 -135.16 -130.41 -228.56zm-289.59 0l96.95 0 0 157.16 112.62 -157.16 108.54 0 -133.62 167.14 147.23 196.58 -120.45 0 -114.32 -168.68 0 168.68 -96.95 0 0 -363.72zm-275.61 0l116.97 0 137.67 363.72 -103.66 0 -25.83 -77.05 -139.98 0 -27.13 77.05 -95.92 0 137.88 -363.72zm56.56 81.12l-47.08 136.38 92.64 0 -45.56 -136.38zm-494.77 -81.12l144.49 0c48.16,0 83.88,7.81 107.21,23.43 23.3,15.62 34.96,39.39 34.96,71.29 0,23.56 -6.14,42.94 -18.45,58.13 -12.32,15.19 -30.09,25.35 -53.33,30.46 19.15,6.99 34.52,26.86 46.15,59.61l43.45 120.8 -101.13 0 -32.01 -99.57c-5.11,-16.01 -12.1,-27.11 -20.97,-33.24 -8.87,-6.16 -22.69,-9.23 -41.45,-9.23l-14.06 0 0 142.04 -94.86 0 0 -363.72zm94.86 63.94l0 93.29 34.02 0c20.99,0 36.72,-3.8 47.19,-11.41 10.5,-7.6 15.74,-19 15.74,-34.21 0,-16.4 -5.84,-28.44 -17.53,-36.13 -11.67,-7.69 -30.13,-11.54 -55.37,-11.54l-24.05 0zm-613.88 -63.94l96.96 0 0 157.16 112.62 -157.16 108.52 0 -133.59 167.14 147.22 196.58 -120.45 0 -114.32 -168.68 0 168.68 -96.96 0 0 -363.72zm-402.14 0l121 0 105.35 218.07c3.58,7.33 7.76,17.53 12.53,30.58 4.78,13.06 10.06,29.06 15.87,48 -3.08,-17.92 -5.34,-34.38 -6.79,-49.39 -1.46,-15.03 -2.18,-28.76 -2.18,-41.22l0 -206.04 87.52 0 0 363.72 -120.5 0 -109.43 -226.02c-5.11,-10.4 -9.81,-21.71 -14.06,-33.91 -4.27,-12.19 -8.18,-25.47 -11.77,-39.81 3.4,21.68 5.92,41.6 7.55,59.78 1.61,18.16 2.42,34.16 2.42,47.97l0 191.99 -87.51 0 0 -363.72zm-275.62 0l116.95 0 137.69 363.72 -103.64 0 -25.85 -77.05 -139.98 0 -27.12 77.05 -95.93 0 137.88 -363.72zm56.56 81.12l-47.09 136.38 92.65 0 -45.56 -136.38zm-498.52 -81.12l148.88 0c44.02,0 77.09,7.9 99.27,23.69 22.18,15.8 33.26,39.31 33.26,70.54 0,21 -5.8,38.45 -17.41,52.35 -11.6,13.92 -28.49,23.94 -50.66,30.1 24.9,4.61 44.04,14.36 57.42,29.29 13.39,14.92 20.08,33.98 20.08,57.17 0,34.12 -12.2,59.41 -36.58,75.88 -24.39,16.46 -61.98,24.7 -112.8,24.7l-141.46 0 0 -363.72zm94.86 65.52l0 81.23 29.45 0c20.48,0 35.81,-3.47 45.96,-10.38 10.16,-6.93 15.25,-17.47 15.25,-31.65 0,-12.81 -4.79,-22.55 -14.36,-29.22 -9.55,-6.66 -23.64,-9.98 -42.24,-9.98l-34.06 0zm0 145.68l0 85.42 38.15 0c19.79,0 34.79,-3.7 45.02,-11.13 10.23,-7.4 15.35,-18.2 15.35,-32.35 0,-13.97 -4.7,-24.47 -14.08,-31.46 -9.37,-7 -23.35,-10.48 -41.93,-10.48l-42.51 0zm-1460.71 -416.4c0,-85.52 69.32,-154.86 154.86,-154.86l770.29 0c85.51,0 154.84,69.34 154.84,154.86l0 770.3c0,85.52 -69.33,154.85 -154.84,154.85l-770.29 0c-85.54,0 -154.86,-69.33 -154.86,-154.85l0 -770.3zm188.41 819.34c-45.62,0 -82.58,-36.99 -82.58,-82.6l0 -702.93c0,-45.61 36.96,-82.59 82.58,-82.59l94.21 0c124.13,0 216.06,125.8 136.66,205.3l-230.34 230.67 197.68 207.08c95.85,100.41 -16.39,225.07 -122.73,225.07l-75.48 0zm298.93 -868.12l79.63 0c124.12,0 216.06,125.8 136.66,205.3l-230.35 230.67 423.45 431.97 -446.86 -0.08c96.01,0 156.62,-161.53 53.87,-268.53l-156.94 -163.36 182.68 -188.32c98.39,-101.42 26.98,-231.88 -42.14,-247.65zm486.73 785.52l-342.92 -349.55 182.68 -188.32c98.37,-101.42 26.97,-231.88 -42.15,-247.65l119.65 0c45.61,0 82.59,36.98 82.59,82.59l0.15 702.93z"/>
 </g>
</svg>
